<svg width="152" height="30" viewBox="0 0 152 30" fill="none" xmlns="http://www.w3.org/2000/svg">
<path fill-rule="evenodd" clip-rule="evenodd" d="M44.6065 23.6518C43.809 23.8759 42.9741 23.988 42.1018 23.988C40.8603 23.988 39.7425 23.7678 38.7485 23.3276C37.7545 22.8873 36.9373 22.2569 36.2968 21.4363C35.6564 20.6158 35.2498 19.6412 35.0769 18.5124L38.0236 18.0561C38.2751 19.0808 38.7917 19.8733 39.5736 20.4337C40.3554 20.994 41.2571 21.2742 42.2786 21.2742C42.8837 21.2742 43.4534 21.1782 43.9877 20.986C44.5221 20.7939 44.9562 20.5137 45.2902 20.1455C45.6241 19.7772 45.7911 19.3249 45.7911 18.7886C45.7911 18.5484 45.7518 18.3263 45.6732 18.1222C45.5947 17.918 45.4787 17.7359 45.3255 17.5758C45.1723 17.4157 44.9758 17.2696 44.7362 17.1375C44.4965 17.0054 44.2195 16.8914 43.9052 16.7953L39.5205 15.4744C39.1433 15.3624 38.7367 15.2123 38.3006 15.0241C37.8645 14.836 37.4519 14.5758 37.063 14.2436C36.674 13.9114 36.3558 13.4871 36.1082 12.9708C35.8607 12.4545 35.737 11.816 35.737 11.0556C35.737 9.94282 36.014 9.00821 36.5679 8.25172C37.1219 7.49523 37.8684 6.92886 38.8074 6.55261C39.7464 6.17637 40.7896 5.99224 41.9368 6.00025C43.0998 6.00826 44.137 6.21039 45.0485 6.60665C45.96 7.0029 46.7223 7.57728 47.3352 8.32977C47.9481 9.08226 48.3803 9.99086 48.6317 11.0556L45.5789 11.5959C45.4532 10.9875 45.2116 10.4692 44.854 10.0409C44.4965 9.61261 44.0604 9.2864 43.5457 9.06225C43.031 8.8381 42.4829 8.71802 41.9015 8.70201C41.3357 8.69401 40.8112 8.78006 40.3279 8.96018C39.8447 9.1403 39.4557 9.39847 39.161 9.73469C38.8664 10.0709 38.719 10.4632 38.719 10.9115C38.719 11.3357 38.8447 11.682 39.0962 11.9501C39.3477 12.2183 39.66 12.4304 40.0333 12.5866C40.4065 12.7427 40.7856 12.8727 41.1707 12.9768L44.2117 13.8414C44.6281 13.9534 45.0957 14.1055 45.6143 14.2977C46.1329 14.4898 46.6319 14.758 47.1112 15.1022C47.5906 15.4464 47.9854 15.8987 48.2958 16.4591C48.6062 17.0194 48.7614 17.7319 48.7614 18.5965C48.7614 19.4931 48.5787 20.2796 48.2133 20.956C47.8479 21.6325 47.3548 22.1948 46.734 22.6431C46.1133 23.0914 45.4041 23.4276 44.6065 23.6518ZM58.5825 23.2015C57.7653 23.7338 56.7595 24 55.5651 24C54.6221 24 53.8442 23.8399 53.2313 23.5197C52.6184 23.1995 52.1312 22.7912 51.7697 22.2949C51.4083 21.7986 51.1411 21.2702 50.9682 20.7099C50.7954 20.1495 50.6834 19.6192 50.6323 19.1188C50.5812 18.6185 50.5557 18.2122 50.5557 17.9V10.6593H53.4317V16.9034C53.4317 17.3036 53.4592 17.7539 53.5142 18.2543C53.5692 18.7546 53.6969 19.2349 53.8973 19.6952C54.0976 20.1555 54.3962 20.5337 54.7931 20.8299C55.1899 21.1261 55.7262 21.2742 56.402 21.2742C56.7634 21.2742 57.1209 21.2142 57.4746 21.0941C57.8282 20.974 58.1484 20.7679 58.4352 20.4757C58.722 20.1835 58.9518 19.7813 59.1247 19.2689C59.2976 18.7566 59.384 18.1082 59.384 17.3237V10.6593H62.2364V23.6278H59.7258L59.7252 22.1858L59.6595 22.2664C59.3501 22.6236 58.9911 22.9353 58.5825 23.2015ZM71.1301 23.9877C72.3009 23.9877 73.3225 23.6875 74.1947 23.0871C75.0669 22.4867 75.7427 21.6702 76.222 20.6375C76.7013 19.6048 76.941 18.4401 76.941 17.1432C76.941 15.8304 76.6974 14.6596 76.2102 13.6309C75.723 12.6023 75.0374 11.7897 74.1534 11.1934C73.2694 10.597 72.2263 10.2988 71.024 10.2988C69.8139 10.2988 68.7983 10.597 67.9772 11.1934L67.8531 11.2884L67.8534 6.33618H64.9892V23.6275H67.4998L67.4995 22.6738L67.5687 22.738C67.6382 22.7998 67.7095 22.8598 67.7825 22.918L68.0066 23.0871C68.8474 23.6875 69.8886 23.9877 71.1301 23.9877ZM68.8495 20.86C69.3171 21.2163 69.932 21.3944 70.6942 21.3944C71.4328 21.3944 72.0418 21.2062 72.5211 20.83C73.0005 20.4538 73.356 19.9434 73.5878 19.299C73.8196 18.6546 73.9355 17.9361 73.9355 17.1436C73.9355 16.3591 73.8177 15.6446 73.5819 15.0002C73.3462 14.3558 72.9808 13.8434 72.4858 13.4632C71.9907 13.0829 71.3621 12.8928 70.5999 12.8928C69.8769 12.8928 69.2876 13.0709 68.8319 13.4272C68.3761 13.7834 68.0402 14.2797 67.8241 14.9161C67.608 15.5526 67.4999 16.295 67.4999 17.1436C67.4999 17.9841 67.608 18.7246 67.8241 19.365C68.0402 20.0055 68.382 20.5038 68.8495 20.86ZM83.6306 23.9879C85.2729 23.9879 86.5597 23.6156 87.4908 22.8712C88.422 22.1267 88.8876 21.102 88.8876 19.7972C88.8876 19.1247 88.752 18.5523 88.4809 18.08C88.2098 17.6077 87.7698 17.2015 87.1608 16.8612C86.5518 16.521 85.7405 16.2188 84.7268 15.9546C83.7367 15.6985 82.9922 15.4823 82.4932 15.3062C81.9943 15.1301 81.6623 14.954 81.4972 14.7779C81.3322 14.6018 81.2497 14.3896 81.2497 14.1415C81.2497 13.7012 81.454 13.3589 81.8626 13.1148C82.2712 12.8706 82.8095 12.7686 83.4774 12.8086C84.1768 12.8486 84.7366 13.0287 85.157 13.3489C85.5774 13.6692 85.823 14.1054 85.8937 14.6578L88.7933 14.1295C88.6833 13.3529 88.3925 12.6765 87.921 12.1001C87.4496 11.5237 86.8308 11.0795 86.0646 10.7673C85.2985 10.4551 84.4204 10.2989 83.4303 10.2989C82.4166 10.2989 81.5365 10.4611 80.79 10.7853C80.0435 11.1095 79.4621 11.5718 79.0456 12.1722C78.6291 12.7726 78.4209 13.477 78.4209 14.2856C78.4209 14.934 78.5584 15.4863 78.8334 15.9426C79.1085 16.3989 79.5603 16.7932 80.1889 17.1254C80.8175 17.4576 81.6662 17.7678 82.7349 18.056C83.6935 18.3122 84.4047 18.5243 84.8683 18.6924C85.3319 18.8605 85.6324 19.0347 85.77 19.2148C85.9075 19.3949 85.9762 19.633 85.9762 19.9292C85.9762 20.4096 85.7896 20.7878 85.4164 21.064C85.0431 21.3402 84.5147 21.4782 83.831 21.4782C83.0531 21.4782 82.4088 21.2941 81.898 20.9259C81.3872 20.5576 81.0572 20.0533 80.9079 19.4129L78.0084 19.8692C78.2205 21.1741 78.8177 22.1867 79.7999 22.9072C80.7822 23.6277 82.0591 23.9879 83.6306 23.9879ZM98.4174 23.6272C97.5766 23.7873 96.7535 23.8573 95.948 23.8373C95.1426 23.8173 94.4216 23.6652 93.7852 23.381C93.1487 23.0968 92.6654 22.6465 92.3354 22.0301C92.0446 21.4697 91.8914 20.8974 91.8757 20.313L91.8672 19.9532C91.8572 19.4614 91.8521 18.9209 91.8521 18.3317L91.8516 12.9282H89.5419V10.6587H91.8516L91.8521 7.05634H94.681L94.6804 10.6587H98.4174V12.9282H94.6804L94.681 18.1636C94.681 18.6839 94.6868 19.1402 94.6986 19.5325C94.7104 19.9247 94.791 20.2449 94.9403 20.4931C95.2231 20.9734 95.675 21.2416 96.2957 21.2976C96.9165 21.3537 97.6237 21.3216 98.4174 21.2016V23.6272ZM104.203 23.9879C105.351 23.9879 106.307 23.7697 107.074 23.3335C107.61 23.0281 108.099 22.6001 108.541 22.0495L108.67 21.8805L108.671 23.6277H111.158V15.6665C111.158 15.1061 111.134 14.5877 111.087 14.1114C111.04 13.6351 110.902 13.1688 110.674 12.7125C110.258 11.856 109.619 11.2396 108.759 10.8633C107.899 10.4871 106.903 10.2989 105.771 10.2989C104.27 10.2989 103.078 10.6312 102.194 11.2956C101.31 11.96 100.711 12.8406 100.396 13.9373L102.989 14.7659C103.202 14.1014 103.575 13.6331 104.109 13.3609C104.644 13.0888 105.197 12.9527 105.771 12.9527C106.722 12.9527 107.398 13.1648 107.798 13.5891C108.126 13.9362 108.317 14.4415 108.372 15.1048L108.373 15.1391L108.109 15.1786C107.899 15.2102 107.69 15.2411 107.484 15.2713L106.873 15.3603C106.068 15.4763 105.321 15.6024 104.634 15.7385C103.946 15.8746 103.347 16.0267 102.836 16.1948C102.16 16.427 101.61 16.7251 101.186 17.0894C100.762 17.4536 100.447 17.8859 100.243 18.3862C100.039 18.8866 99.9366 19.4489 99.9366 20.0733C99.9366 20.7858 100.1 21.4382 100.426 22.0306C100.752 22.623 101.233 23.0973 101.87 23.4535C102.506 23.8098 103.284 23.9879 104.203 23.9879ZM103.644 21.4663C103.946 21.6104 104.322 21.6825 104.77 21.6825C105.414 21.6825 105.964 21.5664 106.42 21.3343C106.875 21.1021 107.239 20.8179 107.51 20.4817C107.781 20.1455 107.964 19.8293 108.058 19.5331C108.207 19.1648 108.292 18.7426 108.311 18.2662L108.32 18.0356C108.326 17.8868 108.33 17.7481 108.334 17.6193L108.335 17.5128L108.179 17.5378C107.749 17.6077 107.359 17.6724 107.009 17.7319C106.396 17.836 105.87 17.934 105.43 18.0261C104.99 18.1182 104.601 18.2202 104.263 18.3323C103.933 18.4524 103.654 18.5925 103.426 18.7526C103.198 18.9127 103.023 19.0968 102.901 19.3049C102.779 19.5131 102.719 19.7572 102.719 20.0374C102.719 20.3576 102.797 20.6398 102.954 20.884C103.111 21.1281 103.341 21.3222 103.644 21.4663ZM116.555 23.6278V16.9634C116.555 16.1709 116.641 15.5205 116.814 15.0121C116.987 14.5038 117.217 14.1035 117.504 13.8113C117.79 13.5192 118.111 13.313 118.464 13.1929C118.818 13.0729 119.175 13.0128 119.537 13.0128C120.213 13.0128 120.749 13.1609 121.146 13.4571C121.543 13.7533 121.841 14.1316 122.042 14.5919C122.242 15.0522 122.37 15.5305 122.425 16.0268C122.48 16.5231 122.507 16.9754 122.507 17.3837V23.6278H125.383V16.387C125.383 16.0748 125.358 15.6686 125.306 15.1682C125.255 14.6679 125.143 14.1376 124.971 13.5772C124.798 13.0168 124.531 12.4885 124.169 11.9922C123.808 11.4958 123.32 11.0876 122.707 10.7674C122.095 10.4472 121.317 10.287 120.374 10.287C119.179 10.287 118.174 10.5532 117.356 11.0856C116.948 11.3517 116.589 11.6634 116.279 12.0207L116.212 12.1032L116.213 10.6593H113.679V23.6278H116.555ZM136.859 22.9252C135.876 23.6337 134.674 23.9879 133.252 23.9879C131.94 23.9879 130.82 23.6897 129.893 23.0933C128.965 22.4969 128.256 21.6824 127.765 20.6497C127.274 19.617 127.024 18.4483 127.017 17.1434C127.024 15.8146 127.282 14.6358 127.789 13.6071C128.296 12.5784 129.016 11.7699 129.952 11.1815C130.887 10.5931 131.999 10.2989 133.287 10.2989C134.733 10.2989 135.957 10.6692 136.959 11.4097C137.961 12.1502 138.615 13.1608 138.921 14.4417L136.092 15.2222C135.872 14.5257 135.507 13.9834 134.996 13.5951C134.486 13.2068 133.904 13.0127 133.252 13.0127C132.513 13.0127 131.904 13.1908 131.425 13.5471C130.946 13.9033 130.592 14.3936 130.364 15.018C130.136 15.6424 130.022 16.3509 130.022 17.1434C130.022 18.3762 130.293 19.3729 130.836 20.1334C131.378 20.8939 132.183 21.2741 133.252 21.2741C134.006 21.2741 134.601 21.098 135.038 20.7458C135.474 20.3935 135.802 19.8852 136.022 19.2208L138.921 19.8812C138.528 21.2021 137.841 22.2167 136.859 22.9252ZM151.967 17.9479C152.077 16.3949 151.909 15.046 151.461 13.9013C151.013 12.7566 150.327 11.87 149.404 11.2416C148.481 10.6132 147.359 10.2989 146.039 10.2989C144.789 10.2989 143.689 10.5871 142.738 11.1635C141.788 11.7399 141.045 12.5504 140.511 13.5951C139.976 14.6398 139.709 15.8706 139.709 17.2875C139.709 18.6004 139.982 19.7611 140.528 20.7698C141.074 21.7784 141.835 22.567 142.809 23.1353C143.783 23.7037 144.915 23.9879 146.204 23.9879C147.43 23.9879 148.551 23.6637 149.569 23.0153C150.586 22.3668 151.339 21.4582 151.826 20.2895L149.021 19.4249C148.746 20.0253 148.355 20.4836 147.848 20.7998C147.341 21.116 146.738 21.2741 146.039 21.2741C144.954 21.2741 144.129 20.9139 143.563 20.1934C143.128 19.6392 142.86 18.9097 142.76 18.005L142.755 17.9479H150.577H151.967ZM142.823 15.7625H149.084L149.052 15.5272C148.939 14.796 148.728 14.2221 148.42 13.8052C147.94 13.1568 147.186 12.8326 146.157 12.8326C144.994 12.8326 144.129 13.1988 143.563 13.9313L143.447 14.0934C143.184 14.4838 142.992 14.9588 142.871 15.5183L142.823 15.7625Z" fill="#2E2C34"/>
<path fill-rule="evenodd" clip-rule="evenodd" d="M10.4606 2.08011C11.8461 1.30663 13.5191 1.30663 14.9046 2.08011L22.9369 6.56423C24.4335 7.39972 25.3651 9.00825 25.3651 10.7568V19.2432C25.3651 20.9918 24.4335 22.6003 22.9369 23.4358L14.9046 27.9199C13.5191 28.6934 11.8461 28.6934 10.4606 27.9199L2.42828 23.4358C0.931687 22.6003 6.10352e-05 20.9918 6.10352e-05 19.2432L6.10352e-05 10.7568C6.10352e-05 9.00825 0.931685 7.39972 2.42828 6.56423L10.4606 2.08011Z" fill="#2E2C34"/>
<ellipse cx="12.6826" cy="14.7208" rx="4.83069" ry="4.95781" fill="#FBFAFC"/>
</svg>
