<svg width="125" height="114" viewBox="0 0 125 114" fill="none" xmlns="http://www.w3.org/2000/svg">
	<path opacity="0.04" fill-rule="evenodd" clip-rule="evenodd" d="M170 28V0L142 0C142 15.4933 154.507 28 170 28ZM170 104V85.0909C123.011 85.0909 84.9091 46.9891 84.9091 0L66 0C66 57.4836 112.611 104 170 104ZM170 66V47.1429C143.977 47.1429 122.857 26.0229 122.857 0L104 0C104 36.4886 133.511 66 170 66ZM0 66V84.9091C46.9891 84.9091 85.0909 123.011 85.0909 170H104C104 112.611 57.3891 66 0 66ZM0 142V170H28C28 154.507 15.4933 142 0 142ZM0 104V122.857C26.0229 122.857 47.1429 143.977 47.1429 170H66C66 133.511 36.4886 104 0 104Z" fill="current" />
</svg>
