<svg width="20" height="20" viewBox="0 0 20 20" fill="none" xmlns="http://www.w3.org/2000/svg">
<path d="M18.3333 9.99999C18.3333 5.41666 14.5833 1.66666 10 1.66666C5.41667 1.66666 1.66667 5.41666 1.66667 9.99999C1.66667 14.5833 5.41667 18.3333 10 18.3333C14.5833 18.3333 18.3333 14.5833 18.3333 9.99999ZM4.75001 5.91666L14.0833 15.25C13 16.1667 11.5833 16.6667 10 16.6667C6.33334 16.6667 3.33334 13.6667 3.33334 9.99999C3.33334 8.41666 3.83334 6.99999 4.75001 5.91666ZM16.6667 9.99999C16.6667 11.5833 16.1667 13 15.25 14.0833L5.91667 4.74999C7.00001 3.83332 8.41667 3.33332 10 3.33332C13.6667 3.33332 16.6667 6.33332 16.6667 9.99999Z" fill="#B6B4BA"/>
</svg>
